<svg width="70" height="21" viewBox="0 0 70 21" fill="none" xmlns="http://www.w3.org/2000/svg">
<line y1="0.5" x2="16" y2="0.5" stroke="#9847FF"/>
<line x1="26" y1="0.5" x2="42" y2="0.5" stroke="#E1398A"/>
<line x1="18" y1="18.5" x2="34" y2="18.5" stroke="#F0683D"/>
<line x1="34.4287" y1="8.25725" x2="31.4287" y2="13.2572" stroke="#47B2FF"/>
<path d="M8.86506 9.02983C8.78267 8.77131 8.67188 8.53977 8.53267 8.33523C8.39631 8.12784 8.23295 7.9517 8.04261 7.80682C7.85227 7.65909 7.63494 7.54687 7.39062 7.47017C7.14915 7.39347 6.88352 7.35511 6.59375 7.35511C6.10227 7.35511 5.65909 7.48153 5.2642 7.73438C4.86932 7.98722 4.55682 8.35795 4.3267 8.84659C4.09943 9.33239 3.9858 9.92756 3.9858 10.6321C3.9858 11.3395 4.10085 11.9375 4.33097 12.4261C4.56108 12.9148 4.87642 13.2855 5.27699 13.5384C5.67756 13.7912 6.13352 13.9176 6.64489 13.9176C7.11932 13.9176 7.53267 13.821 7.88494 13.6278C8.24006 13.4347 8.5142 13.1619 8.70739 12.8097C8.90341 12.4545 9.00142 12.0369 9.00142 11.5568L9.34233 11.6207H6.84517V10.5341H10.2756V11.527C10.2756 12.2599 10.1193 12.8963 9.80682 13.4361C9.49716 13.973 9.06818 14.3878 8.51989 14.6804C7.97443 14.973 7.34943 15.1193 6.64489 15.1193C5.85511 15.1193 5.16193 14.9375 4.56534 14.5739C3.97159 14.2102 3.50852 13.6946 3.17614 13.027C2.84375 12.3565 2.67756 11.5611 2.67756 10.6406C2.67756 9.9446 2.77415 9.3196 2.96733 8.76562C3.16051 8.21165 3.43182 7.74148 3.78125 7.35511C4.13352 6.96591 4.54688 6.66903 5.02131 6.46449C5.49858 6.2571 6.01989 6.15341 6.58523 6.15341C7.05682 6.15341 7.49574 6.22301 7.90199 6.36222C8.31108 6.50142 8.67472 6.69886 8.9929 6.95455C9.31392 7.21023 9.57955 7.5142 9.78977 7.86648C10 8.21591 10.142 8.60369 10.2159 9.02983H8.86506ZM19.5281 10.6364C19.5281 11.5682 19.3576 12.3693 19.0167 13.0398C18.6758 13.7074 18.2085 14.2216 17.6147 14.5824C17.0238 14.9403 16.3519 15.1193 15.5991 15.1193C14.8434 15.1193 14.1687 14.9403 13.5749 14.5824C12.984 14.2216 12.5181 13.706 12.1772 13.0355C11.8363 12.3651 11.6658 11.5653 11.6658 10.6364C11.6658 9.70455 11.8363 8.90483 12.1772 8.23722C12.5181 7.56676 12.984 7.05256 13.5749 6.6946C14.1687 6.33381 14.8434 6.15341 15.5991 6.15341C16.3519 6.15341 17.0238 6.33381 17.6147 6.6946C18.2085 7.05256 18.6758 7.56676 19.0167 8.23722C19.3576 8.90483 19.5281 9.70455 19.5281 10.6364ZM18.2241 10.6364C18.2241 9.92614 18.109 9.32812 17.8789 8.84233C17.6516 8.35369 17.3391 7.98438 16.9414 7.73438C16.5465 7.48153 16.0991 7.35511 15.5991 7.35511C15.0962 7.35511 14.6474 7.48153 14.2525 7.73438C13.8576 7.98438 13.5451 8.35369 13.315 8.84233C13.0877 9.32812 12.9741 9.92614 12.9741 10.6364C12.9741 11.3466 13.0877 11.946 13.315 12.4347C13.5451 12.9205 13.8576 13.2898 14.2525 13.5426C14.6474 13.7926 15.0962 13.9176 15.5991 13.9176C16.0991 13.9176 16.5465 13.7926 16.9414 13.5426C17.3391 13.2898 17.6516 12.9205 17.8789 12.4347C18.109 11.946 18.2241 11.3466 18.2241 10.6364ZM21.1697 15V6.27273H22.4865V10.4403H22.593L26.2536 6.27273H27.9112L24.3913 10.2017L27.924 15H26.3388L23.5178 11.1009L22.4865 12.2855V15H21.1697ZM36.2859 10.6364C36.2859 11.5682 36.1154 12.3693 35.7745 13.0398C35.4336 13.7074 34.9663 14.2216 34.3725 14.5824C33.7816 14.9403 33.1097 15.1193 32.3569 15.1193C31.6012 15.1193 30.9265 14.9403 30.3327 14.5824C29.7418 14.2216 29.2759 13.706 28.935 13.0355C28.5941 12.3651 28.4237 11.5653 28.4237 10.6364C28.4237 9.70455 28.5941 8.90483 28.935 8.23722C29.2759 7.56676 29.7418 7.05256 30.3327 6.6946C30.9265 6.33381 31.6012 6.15341 32.3569 6.15341C33.1097 6.15341 33.7816 6.33381 34.3725 6.6946C34.9663 7.05256 35.4336 7.56676 35.7745 8.23722C36.1154 8.90483 36.2859 9.70455 36.2859 10.6364ZM34.9819 10.6364C34.9819 9.92614 34.8668 9.32812 34.6367 8.84233C34.4094 8.35369 34.0969 7.98438 33.6992 7.73438C33.3043 7.48153 32.8569 7.35511 32.3569 7.35511C31.854 7.35511 31.4052 7.48153 31.0103 7.73438C30.6154 7.98438 30.3029 8.35369 30.0728 8.84233C29.8455 9.32812 29.7319 9.92614 29.7319 10.6364C29.7319 11.3466 29.8455 11.946 30.0728 12.4347C30.3029 12.9205 30.6154 13.2898 31.0103 13.5426C31.4052 13.7926 31.854 13.9176 32.3569 13.9176C32.8569 13.9176 33.3043 13.7926 33.6992 13.5426C34.0969 13.2898 34.4094 12.9205 34.6367 12.4347C34.8668 11.946 34.9819 11.3466 34.9819 10.6364Z" fill="#303030"/>
<line x1="1" y1="2.5" x2="13" y2="2.5" stroke="#DB52FD"/>
<line x1="23" y1="2.5" x2="35" y2="2.5" stroke="#6007D2"/>
<line x1="17.4287" y1="8.25725" x2="14.4287" y2="13.2572" stroke="#47B2FF"/>
<line x1="20" y1="20.5" x2="36" y2="20.5" stroke="#9847FF"/>
</svg>
